<svg width="76" height="72" viewBox="0 0 76 72" fill="none" xmlns="http://www.w3.org/2000/svg">
<path d="M4 35.9341C4 40.0614 4.87944 44.1484 6.5881 47.9615C8.29676 51.7747 10.8012 55.2394 13.9584 58.1579C17.1156 61.0764 20.8637 63.3914 24.9888 64.9709C29.1138 66.5504 33.5351 67.3633 38 67.3633C42.4649 67.3633 46.8862 66.5504 51.0112 64.9709C55.1363 63.3914 58.8844 61.0764 62.0416 58.1579C65.1988 55.2394 67.7032 51.7747 69.4119 47.9615C71.1206 44.1484 72 40.0614 72 35.9341C72 31.8067 71.1206 27.7198 69.4119 23.9066C67.7032 20.0935 65.1988 16.6287 62.0416 13.7103C58.8844 10.7918 55.1363 8.47673 51.0112 6.89726C46.8862 5.31779 42.4649 4.50485 38 4.50485C33.5351 4.50485 29.1138 5.31779 24.9888 6.89726C20.8637 8.47673 17.1156 10.7918 13.9584 13.7103C10.8012 16.6287 8.29676 20.0935 6.5881 23.9066C4.87944 27.7198 4 31.8067 4 35.9341Z" stroke="white" stroke-width="7.55556" stroke-linecap="round" stroke-linejoin="round"/>
<path d="M26.6667 28.9498C26.6667 31.7283 27.8607 34.393 29.9861 36.3577C32.1116 38.3225 34.9942 39.4262 38 39.4262C41.0058 39.4262 43.8885 38.3225 46.0139 36.3577C48.1393 34.393 49.3334 31.7283 49.3334 28.9498C49.3334 26.1713 48.1393 23.5066 46.0139 21.5419C43.8885 19.5772 41.0058 18.4734 38 18.4734C34.9942 18.4734 32.1116 19.5772 29.9861 21.5419C27.8607 23.5066 26.6667 26.1713 26.6667 28.9498Z" stroke="white" stroke-width="7.55556" stroke-linecap="round" stroke-linejoin="round"/>
<path d="M15.9681 59.8518C16.9032 56.975 18.8165 54.4535 21.4242 52.6614C24.0319 50.8692 27.1951 49.9018 30.4446 49.9026H45.5557C48.8093 49.9016 51.9764 50.8714 54.586 52.6677C57.1956 54.464 59.1083 56.9909 60.0397 59.8727" stroke="white" stroke-width="7.55556" stroke-linecap="round" stroke-linejoin="round"/>
</svg>
