<svg width="74" height="80" viewBox="0 0 74 80" fill="none" xmlns="http://www.w3.org/2000/svg">
<path d="M1.94723e-07 4.41763V75.0799C-0.000245662 75.8657 0.232327 76.6373 0.673723 77.3151C1.11512 77.993 1.74935 78.5525 2.51098 78.936C3.27261 79.3194 4.13406 79.5129 5.00644 79.4965C5.87883 79.4801 6.73055 79.2544 7.47374 78.8426L71.2261 43.5115C71.9401 43.1164 72.5298 42.563 72.9388 41.9043C73.3479 41.2456 73.5626 40.5035 73.5626 39.7487C73.5626 38.994 73.3479 38.2519 72.9388 37.5932C72.5298 36.9344 71.9401 36.3811 71.2261 35.986L7.47374 0.65487C6.73055 0.243107 5.87883 0.0173746 5.00644 0.000963462C4.13406 -0.0154477 3.27261 0.178057 2.51098 0.561511C1.74935 0.944966 1.11512 1.50448 0.673723 2.18234C0.232327 2.86019 -0.000245662 3.63183 1.94723e-07 4.41763Z" fill="white"/>
</svg>
